# xmcd CD database file
#
# Track frame offsets:
#	225
#	11966
#	19773
#	30778
#	43219
#	51650
#	63395
#
# Disc length: 971 seconds
#
# Revision: 0
# Processed by: cddbd v1.5.1PL0 Copyright (c) Steve Scherf et al.
# Submitted via: CDex 1.51
#
DISCID=5b03c807
DTITLE=Tre Små Grisar - Oink, sju små trudeluttar
DYEAR=1997
DGENRE=Jazz
TTITLE0=HV-Bängalisten
TTITLE1=Bängböste Boogie
TTITLE2=Gå dä så gå dä
TTITLE3=Varma klippor
TTITLE4=Kaffemanischen
TTITLE5=Burebängen
TTITLE6=Newton harcourt
EXTD=YEAR: 1997
EXTT0=
EXTT1=
EXTT2=
EXTT3=
EXTT4=
EXTT5=
EXTT6=
PLAYORDER=
